name processed_emg_signals
nRows=48
nColumns=7
 
endheader
time	RGLTMED	RRF	RADDLONG	RST	RTA	RGM
1.2550000000000001	0.1311876093050441	0.1775907637818873	0.0466089787894167	0.0652173893738226	0.2016405902828107	0.0766288474053838
1.256	0.1320643447772301	0.179078189269816	0.0467786856003133	0.064171447611569	0.1957743135749304	0.0763924951025493
1.2570000000000001	0.1329138049912565	0.1805322142544746	0.0469477081435247	0.0631397057571929	0.1900204779780418	0.0761672516062945
1.258	0.1337356238093372	0.181951691299143	0.0471159238923608	0.0621226524446422	0.1843807562633944	0.0759530412589711
1.2590000000000001	0.1345294672979668	0.1833354925590022	0.047283209749879	0.0611207592100075	0.1788567075575175	0.0757497821528971
1.26	0.1352950337658646	0.1846825110869851	0.0474494421832129	0.0601344799759296	0.1734497765010329	0.0755573865037961
1.2610000000000001	0.1360320537403398	0.1859916621433863	0.0476144973600579	0.0591642505644487	0.1681612925773477	0.0753757610106025
1.262	0.1367402898820238	0.1872618845102415	0.0477782512880088	0.0582104882393867	0.1629924696099657	0.0752048071995676
1.2630000000000001	0.1374195368379968	0.1884921418112417	0.0479405799574108	0.0572735912792765	0.1579444054271306	0.0750444217511667
1.264	0.1380696210334694	0.1896814238378159	0.0481013594882554	0.0563539385816336	0.1530180816923315	0.0748944968090273
1.2650000000000001	0.1386904004027196	0.1908287478815772	0.0482604662815856	0.0554518892992189	0.1482143638991936	0.0747549202707246
1.266	0.1392817640604357	0.1919331600730492	0.0484177771757984	0.0545677825087201	0.1435340015290969	0.0746255760608161
1.2670000000000001	0.1398436319154908	0.1929937367261782	0.0485731696081666	0.0537019369121618	0.1389776283695774	0.0745063443868021
1.268	0.1403759542296703	0.1940095856878023	0.0487265217817548	0.0528546505711064	0.1345457629913211	0.0743971019789494
1.2690000000000001	0.1408787111245084	0.194979847691048	0.0488777128379248	0.0520262006736623	0.1302388093810937	0.074297722315012
1.27	0.1413519120396339	0.1959036977113031	0.0490266230344581	0.0512168433341799	0.1260570577276761	0.0742080758308603
1.2710000000000001	0.1417955951462458	0.1967803463232883	0.0491731339293637	0.0504268134253865	0.1220006853575122	0.0741280301179006
1.272	0.1422098267192181	0.1976090410575135	0.0493171285703267	0.049656324442786	0.1180697578166344	0.0740574501081662
1.2730000000000001	0.1425947004711901	0.1983890677541382	0.0494584916897631	0.0489055684010213	0.1142642300950643	0.0739961982479356
1.274	0.1429503368515694	0.1991197519120152	0.0495971099053611	0.0481747157619584	0.1105839479898365	0.0739441346608158
1.2750000000000001	0.1432768823132972	0.1998004600303385	0.0497328719258728	0.0474639153942708	0.1070286496024826	0.0739011173012703
1.276	0.1435745085499372	0.2004306009400438	0.0498656687618434	0.0467732945642479	0.1035979669668275	0.0738670020995372
1.2770000000000001	0.1438434117058724	0.2010096271217606	0.0499953939408162	0.046102958957607	0.1002914278026862	0.0738416430987627
1.278	0.144083811562466	0.201537036006701	0.0501219437264014	0.0454529927319279	0.0971084573909927	0.0738248925850921
1.2790000000000001	0.1442959507034188	0.2020123712564473	0.0502452173404776	0.0448234585993943	0.0940483805655992	0.0738166012113726
1.28	0.1444800936626641	0.2024352240172245	0.0503651171877191	0.0442143979394268	0.0911104238169401	0.0738166181149335
1.281	0.144636526058276	0.2028052341437263	0.0504815490814591	0.0436258309407401	0.0882937175024389	0.0738247910297729
1.282	0.1447655537158064	0.2031220913872497	0.0505944224698998	0.0430577567723971	0.0855972981583865	0.0738409663934068
1.283	0.1448675017844322	0.2033855365424832	0.0507036506615395	0.0425101537833298	0.0830201109078071	0.0738649894484993
1.284	0.1449427138491533	0.2035953625470754	0.0508091510485382	0.0419829797298245	0.0805610119587131	0.0738967043395042
1.285	0.144991551042052	0.2037514155279575	0.0509108453267744	0.0414761720303994	0.0782187711871166	0.0739359542046007
1.286	0.1450143911553384	0.2038535957880894	0.0510086597111539	0.040989648047522	0.0759920747990877	0.0739825812633508
1.287	0.1450116277586674	0.2039018587271475	0.0511025251448352	0.0405233053955738	0.0738795280662241	0.0740364269005434
1.288	0.1449836693228973	0.2038962156893197	0.0511923775008611	0.0400770222745287	0.0718796581289435	0.0740973317466034
1.289	0.1449309383523946	0.2038367347310593	0.051278157774733	0.0396506578287792	0.0699909168622265	0.0741651357548139
1.29	0.1448538705277436	0.2037235413013508	0.0513598122662951	0.0392440525305525	0.068211683798474	0.0742396782754992
1.291	0.1447529138606202	0.2035568188267078	0.0514372927493892	0.0388570285873805	0.0665402691023428	0.0743207981272541
1.292	0.1446285278623743	0.2033368091932528	0.0515105566277054	0.0384893903730585	0.0649749165923683	0.0744083336653572
1.293	0.1444811827275673	0.2030638131183638	0.0515795670754534	0.0381409248814464	0.0635138068041848	0.0745021228476148
1.294	0.1443113585334401	0.2027381904050366	0.0516442931617176	0.0378114022024538	0.0621550600901793	0.0746020032978579
1.295	0.1441195444560451	0.202360360072941	0.0517047099575686	0.0375005760194177	0.0608967397502423	0.0747078123673623
1.296	0.1439062380034233	0.2019308003612508	0.0517607986253384	0.0372081841269806	0.0597368551883291	0.0748193871944381
1.297	0.1436719442659634	0.2014500485995805	0.0518125464897031	0.0369339489685028	0.0586733650895031	0.0749365647624714
1.298	0.1434171751837276	0.2009187009444336	0.0518599470905028	0.0366775781919182	0.0577041806121425	0.0750591819566409
1.299	0.1431424488302508	0.2003374119795182	0.0519030002173958	0.0364387652228715	0.0568271685901026	0.0751870756195493
1.3	0.1428482887120503	0.199706894179398	0.0519417119266781	0.0362171898538488	0.0560401547395619	0.0753200826058187
1.301	0.1425352230829611	0.1990279172369489	0.0519760945405801	0.0360125188479878	0.0553409268653407	0.0754580398355547
1.302	0.1422037842722973	0.1983013072561245	0.0520061666294412	0.0358244065561663	0.0547272380613921	0.0756007843463491
